<?xml version="1.0" standalone="no"?>
<!DOCTYPE svg PUBLIC "-//W3C//DTD SVG 20010904//EN"
 "http://www.w3.org/TR/2001/REC-SVG-20010904/DTD/svg10.dtd">
<svg version="1.0" xmlns="http://www.w3.org/2000/svg"
 width="192.000000pt" height="192.000000pt" viewBox="0 0 192.000000 192.000000"
 preserveAspectRatio="xMidYMid meet">

<g transform="translate(0.000000,192.000000) scale(0.100000,-0.100000)"
fill="#000000" stroke="none">
<path d="M642 1473 l128 -128 120 120 c66 66 120 123 120 127 0 5 -111 8 -247
8 l-248 0 127 -127z"/>
<path d="M1090 960 l0 -640 125 0 125 0 0 640 0 640 -125 0 -125 0 0 -640z"/>
<path d="M1540 1475 l125 -125 122 122 c68 68 123 124 123 125 0 2 -111 3
-247 3 l-248 0 125 -125z"/>
<path d="M153 1422 c-11 -24 -17 -64 -17 -117 -1 -143 36 -198 290 -426 218
-194 352 -326 385 -378 l29 -44 22 49 c16 36 22 69 22 129 2 145 -32 190 -359
485 -83 74 -196 181 -252 237 l-103 103 -17 -38z"/>
<path d="M130 445 l-125 -125 248 0 c136 0 247 3 247 6 0 6 -236 244 -242 244
-2 0 -59 -56 -128 -125z"/>
</g>
</svg>
